<?xml version="1.0" encoding="UTF-8" standalone="no"?>
<svg
   xmlns:dc="http://purl.org/dc/elements/1.1/"
   xmlns:cc="http://creativecommons.org/ns#"
   xmlns:rdf="http://www.w3.org/1999/02/22-rdf-syntax-ns#"
   xmlns:svg="http://www.w3.org/2000/svg"
   xmlns="http://www.w3.org/2000/svg"
   xmlns:sodipodi="http://sodipodi.sourceforge.net/DTD/sodipodi-0.dtd"
   xmlns:inkscape="http://www.inkscape.org/namespaces/inkscape"
   version="1.1"
   width="459.71619"
   height="360.64252"
   viewBox="0 0 459.71619 360.64252"
   id="svg75"
   sodipodi:docname="questions.svg"
   inkscape:version="0.92.4 (f8dce91, 2019-08-02)">
  <metadata
     id="metadata81">
    <rdf:RDF>
      <cc:Work
         rdf:about="">
        <dc:format>image/svg+xml</dc:format>
        <dc:type
           rdf:resource="http://purl.org/dc/dcmitype/StillImage" />
        <dc:title></dc:title>
      </cc:Work>
    </rdf:RDF>
  </metadata>
  <defs
     id="defs79" />
  <sodipodi:namedview
     pagecolor="#ffffff"
     bordercolor="#666666"
     borderopacity="1"
     objecttolerance="10"
     gridtolerance="10"
     guidetolerance="10"
     inkscape:pageopacity="0"
     inkscape:pageshadow="2"
     inkscape:window-width="1920"
     inkscape:window-height="1145"
     id="namedview77"
     showgrid="false"
     fit-margin-top="0"
     fit-margin-left="0"
     fit-margin-right="0"
     fit-margin-bottom="0"
     inkscape:zoom="0.96721311"
     inkscape:cx="272.85949"
     inkscape:cy="224.23062"
     inkscape:window-x="1280"
     inkscape:window-y="27"
     inkscape:window-maximized="1"
     inkscape:current-layer="svg75" />
  <g
     id="layer1"
     transform="translate(-68.546732,-328.29538)">
    <g
       style="fill:#000000;fill-opacity:1;stroke-linejoin:miter"
       id="g4">
      <path
         d="m 186.39691,687.9461 v 0 l 17.34332,-52.04125 0.4693,0.70282 c -5.63046,-0.40351 -11.82357,-0.79023 -13.82187,-6.85712 v 0 c -1.50833,-4.57929 -0.56329,-12.39015 0.49607,-21.27305 v 0 c 0.296,-2.48214 0.60449,-5.0694 0.87625,-7.70437 v 0 c 1.25224,-12.14163 1.75209,-25.52557 2.25241,-38.93093 l 1.04819,0.1699 -0.0485,0.1662 v 0 c -2.61111,8.9463 -5.24346,17.93974 -8.97642,25.6623 v 0 c -1.57504,3.2585 -3.34233,6.2838 -5.01628,9.14994 v 0 c -1.52643,2.61352 -2.97086,5.08746 -4.13851,7.50296 v 0 c -0.61079,1.2637 -1.14338,2.5064 -1.57035,3.7388 v 0 c -0.68303,1.9713 -1.10263,3.9357 -1.41449,5.8439 v 0 c -0.18875,1.1546 -0.33741,2.28433 -0.48221,3.3848 v 0 c -0.1348,1.0245 -0.26663,2.0264 -0.42322,2.9845 v 0 c -0.26599,1.6272 -0.60826,3.1608 -1.17874,4.52606 v 0 c -1.86258,4.45724 -6.07802,6.91594 -10.08237,9.27224 -0.12271,0.0722 -0.26918,0.0924 -0.40692,0.0564 v 0 l -16.78507,-4.39847 0.003,7.7e-4 c -1.96927,-0.5044 -3.53363,-0.86014 -4.64126,0.0568 h 3e-5 c -0.27017,0.22365 -0.5264,0.53105 -0.86874,0.94598 l 3e-5,-3e-5 c -0.45601,0.5527 -1.02037,1.2382 -1.8671,1.9392 v 0 c -1.19626,0.9903 -2.92398,1.9865 -5.68673,2.75883 v 0 c -6.09777,1.70457 -17.38483,2.34363 -28.56525,2.97992 l 0.11419,-0.019 c -4.855405,1.3625 -9.875226,2.78095 -13.46672,2.3833 h 3e-5 c -2.130444,-0.2358 -3.74148,-1.104 -4.981625,-1.76885 v 0 C 83.69362,638.70496 83.08356,638.38776 82.56674,638.3306 l 8e-5,10e-5 c -0.02577,-0.003 -0.04558,-0.005 -0.06946,-0.006 h 1.2e-4 c -0.55809,-0.0349 -1.06962,0.2629 -1.87555,0.7668 h 3e-5 c -0.84033,0.52536 -1.898724,1.1935 -3.38435,1.3575 v 0 c -1.93347,0.21345 -5.25195,-0.46074 -5.52736,-2.956 v 0 c -0.02881,-0.26084 -0.0208,-0.53276 0.02533,-0.8149 l -1.5e-5,-10e-5 c 0.0922,-0.5635 0.335575,-1.16374 0.738555,-1.801 v 0 c 2.39505,-3.7871 11.16316,-9.8308 19.72598,-15.7481 l -0.22888,0.39415 c 0.18695,-2.16715 0.33464,-3.92275 -2.61316,-4.86762 v 0 c -1.04452,-0.33477 -2.46438,-0.56268 -4.12796,-0.828 v 0 c -2.10673,-0.33613 -4.55481,-0.72546 -6.89886,-1.47683 v 0 c -1.45343,-0.46586 -2.87943,-1.0746 -4.170214,-1.9051 v 0 c -3.42424,-2.20333 -6.001756,-6.07376 -5.566226,-8.7383 v 0 c 0.202716,-1.2399 1.04851,-2.1507 2.53853,-2.47157 h -3e-5 c 2.87732,-0.61963 8.5403,0.94167 14.215516,2.48871 v 0 c 3.422024,0.93293 6.909729,1.88326 9.968304,2.44316 v 0 c 5.36721,0.9826 9.42504,0.76424 12.88634,0.57717 v 0 c 1.81448,-0.098 3.49198,-0.18937 5.09477,-0.0846 h -3e-5 c 4.66631,0.3049 8.63387,2.2655 12.49588,4.1669 0.26509,0.1305 0.37418,0.4511 0.24367,0.71625 -0.13051,0.26505 -0.4512,0.37415 -0.71628,0.24372 v 0 c -3.8894,-1.91492 -7.67184,-3.77027 -12.09302,-4.05921 h -3e-5 c -1.52769,-0.0999 -3.13745,-0.0136 -4.96719,0.0854 v 0 c -3.47293,0.18768 -7.63858,0.41345 -13.13678,-0.59315 v 0 c -3.11241,-0.56975 -6.646804,-1.5337 -10.05707,-2.46337 v 0 c -5.844464,-1.59323 -11.15913,-3.02413 -13.7088,-2.47497 h -3e-5 c -1.10214,0.23724 -1.582854,0.83374 -1.70778,1.59808 v 0 c -0.32951,2.01593 1.77719,5.53476 5.089205,7.66589 v 0 c 1.19075,0.76617 2.52626,1.34007 3.917845,1.78607 v 0 c 2.25356,0.7224 4.622896,1.10126 6.7408,1.4391 v 0 c 1.633546,0.26055 3.14531,0.5001 4.28604,0.8657 v 0 c 3.76767,1.2077 3.54059,3.7991 3.35263,5.9785 -0.0137,0.1589 -0.09764,0.30356 -0.22888,0.3942 v 0 c -8.69623,6.0095 -17.185775,11.8911 -19.42995,15.43975 v 0 c -0.347,0.54865 -0.523464,1.01385 -0.58691,1.4018 v -5e-5 c -0.03154,0.1929 -0.03517,0.36705 -0.01775,0.52495 v 0 c 0.15804,1.43219 2.36872,2.22809 4.34639,2.00985 v 0 c 1.21755,-0.1345 2.09023,-0.6734 2.93456,-1.2013 h 3e-5 c 0.72714,-0.45467 1.54402,-0.9878 2.509475,-0.92745 l 1.65e-4,5e-5 c 0.04239,0.003 0.0786,0.006 0.119876,0.0104 l 6.4e-5,5e-5 c 0.76915,0.0851 1.58587,0.5329 2.3984,0.96851 v 0 c 1.242435,0.66594 2.69034,1.43768 4.593784,1.64837 h 3.1e-5 c 3.334961,0.36927 8.1138,-0.96213 13.059845,-2.35003 0.0373,-0.0104 0.0755,-0.0168 0.11417,-0.019 v 0 c 11.24591,-0.64 22.38191,-1.2772 28.33795,-2.9422 v 0 c 2.63753,-0.7373 4.22612,-1.6698 5.29246,-2.55254 v 0 c 0.76143,-0.63036 1.27025,-1.24586 1.72406,-1.79596 h 4e-5 c 0.3244,-0.3932 0.64735,-0.78753 1.01173,-1.08917 l 3e-5,-3e-5 c 1.61032,-1.33304 3.80237,-0.72684 5.58899,-0.2692 l 0.003,8e-4 16.78509,4.3985 -0.40692,0.0564 c 4.07397,-2.3972 7.93643,-4.6913 9.63773,-8.7626 v 0 c 0.52247,-1.25035 0.84881,-2.68815 1.11001,-4.2861 v 0 c 0.15334,-0.93806 0.28317,-1.9243 0.41832,-2.9515 v 0 c 0.14449,-1.0981 0.29527,-2.2443 0.48711,-3.41784 v 0 c 0.31746,-1.9422 0.74907,-3.97126 1.45945,-6.0216 v 0 c 0.44401,-1.2815 0.99399,-2.56306 1.618,-3.85406 v 0 c 1.18926,-2.46033 2.65629,-4.97156 4.17793,-7.577 v 0 c 1.67675,-2.8709 3.42293,-5.86106 4.97686,-9.07596 v 0 c 3.6871,-7.62774 6.29583,-16.5307 8.91264,-25.49644 v 0 l 0.0485,-0.1662 c 0.0756,-0.2591 0.33259,-0.42135 0.59915,-0.3782 0.26651,0.0432 0.4591,0.2782 0.44903,0.5481 v 0 c -0.50003,13.39704 -1.00076,26.8176 -2.2573,39.0007 v 0 c -0.27271,2.64426 -0.58236,5.2409 -0.87815,7.72135 v 0 c -1.07533,9.01678 -1.95646,16.51805 -0.54226,20.81155 v 0 c 1.73547,5.26895 7.02745,5.705 12.88209,6.1245 0.16481,0.0118 0.31491,0.0991 0.40668,0.23656 0.0918,0.13739 0.1149,0.3095 0.0626,0.4663 v 0 l -17.34328,52.0412 c -0.0934,0.28028 -0.39639,0.43184 -0.67673,0.33838 -0.28033,-0.0934 -0.43182,-0.39644 -0.33841,-0.67664 z"
         id="path2"
         inkscape:connector-curvature="0" />
    </g>
    <g
       style="fill:#000000;fill-opacity:1;stroke-linejoin:miter"
       id="g8">
      <path
         d="m 123.80743,608.12164 v 0 l 3.73293,-5.71184 -0.0851,0.24614 c 0.52021,-5.95928 1.0455,-12.03167 2.87426,-16.65794 v 5e-5 c 1.30951,-3.31285 3.27945,-5.8678 5.08602,-8.21485 h 1e-5 c 0.73168,-0.9506 1.43601,-1.866 2.06952,-2.79077 h 2e-5 c 2.20294,-3.2157 3.59768,-6.61108 5.01457,-10.06483 l -0.0193,0.35066 c -0.64284,-2.23966 -1.25968,-4.49701 0.88559,-10.38286 v 0 c 2.11747,-5.80977 6.95851,-15.2462 11.77096,-24.6294 l -0.0588,0.2328 c 0.23261,-10.9921 0.46537,-22.02883 2.29359,-33.18865 v 0 c 1.82791,-11.15805 5.24875,-22.42783 8.65628,-33.65659 0.0409,-0.13491 0.13345,-0.2482 0.25748,-0.31521 v 0 l 59.17617,-31.99935 -0.19479,0.18013 3.61324,-5.58853 c 0.16043,-0.24817 0.49162,-0.3192 0.73979,-0.15878 0.24812,0.16038 0.31923,0.49155 0.15877,0.73972 v 0 l -3.61326,5.5885 c -0.0488,0.0755 -0.11577,0.13742 -0.19479,0.18011 v 0 l -59.17619,31.99939 0.25746,-0.31524 c -3.41161,11.24212 -6.80986,22.44323 -8.62425,33.51885 v 0 c -1.81406,11.07343 -2.04686,22.03445 -2.27973,33.03825 -0.002,0.081 -0.0218,0.1607 -0.0589,0.2328 v 0 c -4.82887,9.41523 -9.6291,18.7769 -11.71774,24.5076 v 0 c -2.0609,5.65434 -1.44868,7.67875 -0.86245,9.72123 0.0332,0.11577 0.0264,0.23927 -0.0192,0.35067 v 0 c -1.4115,3.4406 -2.84502,6.93986 -5.1218,10.2634 h 2e-5 c -0.65328,0.9536 -1.37604,1.8925 -2.10436,2.8387 h 2e-5 c -1.81449,2.3575 -3.69223,4.8017 -4.93889,7.9555 l 1e-5,6e-5 c -1.7593,4.4505 -2.27871,10.34714 -2.8034,16.35764 -0.008,0.0877 -0.0369,0.17226 -0.0851,0.2461 v 0 l -3.73294,5.71193 c -0.16165,0.24727 -0.49322,0.31677 -0.74054,0.15517 -0.24734,-0.16176 -0.31681,-0.4933 -0.15516,-0.74056 z"
         id="path6"
         inkscape:connector-curvature="0" />
    </g>
    <g
       style="fill:#000000;fill-opacity:1;stroke-linejoin:miter"
       id="g12">
      <path
         d="m 228.85208,426.62134 6e-5,9e-5 -0.01,-0.0232 -6e-5,-9e-5 c -2.95624,-6.85648 -5.92895,-13.75288 -8.06128,-22.19806 v 0 c -2.13299,-8.44792 -3.42192,-18.43128 -3.91958,-26.21796 v 0 c -0.49831,-7.79663 -0.20374,-13.40082 0.0893,-18.9812 l 0.002,0.0832 c -0.53891,-5.20365 -1.10366,-10.56323 0.71299,-15.49097 v 0 c 1.81823,-4.932 5.99506,-9.38241 11.06847,-11.88818 v 0 c 5.06797,-2.50308 11.02532,-3.05795 16.85585,-3.60727 0.0266,-0.002 0.0534,-0.003 0.0801,-0.002 h -6e-5 l 0.0383,0.002 7e-5,3e-5 c 10.75128,0.60288 21.77288,1.20443 28.60706,6.76873 v 0 c 6.85454,5.58094 9.39648,16.048 10.59698,24.13456 v 0 c 1.20874,8.14206 1.08472,14.10184 0.96192,20.02728 l -0.70475,-0.51837 c 1.09228,-0.36575 2.30155,-0.77677 3.38355,-0.77677 v 0 c 1.693,4e-5 2.9424,0.99262 3.3988,3.6389 v 0 c 0.75076,4.35323 -0.48533,13.8255 -2.33847,18.64852 v 0 c -1.93415,5.03388 -4.6308,5.22406 -7.17215,5.36353 l 0.50528,-0.55485 0.1383,3.58253 c 0.0114,0.29525 -0.21872,0.54382 -0.51396,0.55523 -0.29524,0.0114 -0.54384,-0.21869 -0.55522,-0.51394 v 0 l -0.13834,-3.58249 c -0.0112,-0.2919 0.21369,-0.53883 0.50531,-0.55483 v 0 c 2.3342,-0.12812 4.51315,-0.20552 6.23197,-4.67894 v 0 c 1.7998,-4.68423 2.99404,-13.95904 2.28286,-18.08294 v 0 c -0.39478,-2.28892 -1.31578,-2.75074 -2.34436,-2.75074 v 0 c -0.87109,0 -1.89917,0.33812 -3.04385,0.72142 -0.16504,0.0553 -0.34665,0.0268 -0.48685,-0.0764 -0.14022,-0.10313 -0.22149,-0.26803 -0.21789,-0.44203 v 0 c 0.12265,-5.91813 0.24407,-11.8013 -0.95053,-19.848 v 0 c -1.20282,-8.10206 -3.71296,-18.1687 -10.2142,-23.46195 v 0 c -6.50593,-5.29703 -17.10856,-5.91992 -27.99136,-6.53018 l 6e-5,3e-5 -0.0383,-0.002 0.0801,-0.002 c -5.87522,0.55353 -11.6236,1.1016 -16.48239,3.50138 v 0 c -4.85334,2.39706 -8.82431,6.64952 -10.53835,11.29892 v 0 c -1.71559,4.65363 -1.19702,9.7542 -0.65263,15.0106 0.003,0.0276 0.004,0.0554 0.002,0.0831 v 0 c -0.29277,5.57495 -0.58409,11.12643 -0.09,18.85687 v 0 c 0.49472,7.74066 1.77638,17.65625 3.88919,26.02423 v 0 c 2.10873,8.35181 5.04834,15.17563 8.00642,22.03638 l -4e-5,-1.3e-4 0.01,0.0232 c 0.11703,0.27145 -0.008,0.58621 -0.2794,0.70319 -0.27133,0.117 -0.58613,-0.008 -0.70312,-0.27942 z"
         id="path10"
         inkscape:connector-curvature="0" />
    </g>
    <g
       style="fill:#000000;fill-opacity:1;stroke-linejoin:miter"
       id="g16">
      <path
         d="m 283.08932,408.88318 v 0 c 2.14328,0.83508 4.3108,1.67929 6.31354,2.64886 h -3e-5 c 2.05249,0.99366 3.95685,2.13044 5.5087,3.54898 v 0 c 3.06171,2.79871 4.67577,6.63285 6.24139,10.33121 l -0.29397,-0.28821 56.40635,22.55963 c 0.0964,0.0385 0.17946,0.10428 0.23916,0.18927 v 0 c 6.96267,9.91553 13.9682,19.88932 17.29748,26.64005 v 0 c 3.36548,6.82403 3.00306,10.4101 2.63458,13.94748 l -0.13519,-0.41419 0.0294,0.0326 -1.8e-4,-1.6e-4 c 3.57833,3.95553 7.27753,8.03563 8.57053,11.82325 v 0 c 1.31918,3.86441 0.1313,7.37258 -0.97462,10.6853 l -0.12783,-0.54636 c 3.37512,3.39878 6.77581,6.82264 8.96185,9.43684 v 0 c 2.2027,2.6341 3.17645,4.4506 4.13623,6.24105 l -0.009,-0.0158 5.38746,9.28446 -0.24717,-0.22116 0.0453,0.02 -2.8e-4,-1.5e-4 c 6.07654,2.67124 12.0066,5.2639 16.73346,5.4521 v 0 c 4.43564,0.1767 7.84827,-1.77146 11.4151,-3.8212 h 4e-5 c 0.19174,-0.11024 0.39266,-0.22565 0.58526,-0.3358 h -3e-5 c 3.76092,-2.15237 7.59811,-4.1752 11.42747,-6.194 l 0.002,-0.001 0.002,-9e-4 c 0.2621,-0.1364 0.58515,-0.0347 0.72163,0.2275 0.13647,0.262 0.0347,0.58513 -0.22743,0.72155 v 0 l -0.002,9.1e-4 0.002,-10e-4 c -3.8316,2.02 -7.65332,4.03495 -11.39498,6.1761 l -4e-5,10e-5 c -0.19256,0.11016 -0.39066,0.2239 -0.58356,0.33477 v 0 c -3.53717,2.03277 -7.205,4.15333 -11.99084,3.96273 v 0 c -4.97601,-0.1982 -11.11871,-2.90304 -17.12146,-5.54184 l -2.7e-4,-6e-5 -0.0453,-0.02 c -0.10357,-0.0456 -0.1902,-0.12304 -0.2472,-0.22114 v 0 l -5.38744,-9.2844 -0.009,-0.0158 c -0.94769,-1.768 -1.88117,-3.50958 -4.014,-6.06024 v 0 c -2.14957,-2.57056 -5.51181,-5.957 -8.90027,-9.3692 -0.14237,-0.14343 -0.1918,-0.35477 -0.12784,-0.54642 v 0 c 1.12224,-3.36158 2.1626,-6.52752 0.97694,-10.00078 v 0 c -1.20515,-3.5302 -4.71138,-7.42738 -8.3514,-11.45112 l -1.4e-4,-1.8e-4 -0.0295,-0.0325 c -0.10174,-0.11248 -0.15093,-0.26312 -0.1352,-0.41418 v 0 c 0.3556,-3.41398 0.71718,-6.77921 -2.52998,-13.36334 v 0 c -3.28342,-6.65778 -10.22687,-16.54871 -17.21354,-26.49842 l 0.23917,0.1893 -56.40635,-22.55962 c -0.13253,-0.053 -0.23836,-0.15675 -0.294,-0.28815 v 0 c -1.58325,-3.74003 -3.11795,-7.34421 -5.978,-9.95859 v 0 c -1.44503,-1.32092 -3.2476,-2.40479 -5.253,-3.37564 v 0 c -1.95763,-0.94776 -4.08455,-1.7768 -6.23573,-2.61496 -0.27533,-0.10724 -0.41153,-0.41742 -0.30427,-0.69272 0.10728,-0.27534 0.41743,-0.41154 0.69272,-0.30426 z"
         id="path14"
         inkscape:connector-curvature="0" />
    </g>
    <g
       style="fill:#000000;fill-opacity:1;stroke-linejoin:miter"
       id="g20">
      <path
         d="m 363.2334,688.218 v 0 c -0.3,-5.5761 -0.59723,-11.099 -4.00226,-19.44896 v 0 c -3.42136,-8.39004 -9.97519,-19.62534 -16.56049,-30.91198 -0.13255,-0.22712 -0.0803,-0.51696 0.12315,-0.68356 v 0 c 8.34338,-6.8316 16.40218,-13.47166 16.82946,-23.6348 v 0 c 0.28454,-6.7679 -2.79936,-15.14734 -5.7778,-23.21485 v 0 c -1.52182,-4.12201 -3.01114,-8.15455 -3.9643,-11.7893 v 0 c -2.82043,-10.75565 -0.94086,-17.99935 0.91054,-25.14475 0.0533,-0.20584 0.2234,-0.3605 0.43334,-0.39413 0.20993,-0.0336 0.4198,0.0603 0.5347,0.23919 v 0 c 7.17324,11.16984 14.27603,22.21778 21.7427,28.16254 v 0 c 7.01306,5.5837 14.37366,6.6747 21.88336,7.5256 v 0 c 0.40744,0.0462 0.88602,0.0995 1.29422,0.14493 0.29368,0.0327 0.50522,0.29727 0.47251,0.59087 -0.0327,0.2937 -0.29723,0.50526 -0.59088,0.47255 v 0 c -0.39125,-0.0436 -0.90455,-0.10075 -1.29633,-0.1452 v 0 C 387.7409,589.1336 380.1064,588.023 372.83594,582.2345 v 0 C 365.19885,576.154 357.99396,564.9226 350.8594,553.813 l 0.96805,-0.15486 c -1.8432,7.11396 -3.65817,14.12982 -0.91128,24.60496 v 0 c 0.93728,3.5745 2.40623,7.55465 3.93303,11.69015 v 0 c 2.95115,7.99345 6.13865,16.60065 5.84312,23.63035 v 0 c -0.45105,10.7282 -8.97806,17.6687 -17.22067,24.4178 l 0.12317,-0.6835 c 6.56912,11.2588 13.17044,22.5705 16.6271,31.04715 v 0 c 3.47328,8.51725 3.77796,14.18315 4.0799,19.79559 0.0159,0.29496 -0.21045,0.54706 -0.50549,0.56296 -0.29505,0.0158 -0.54709,-0.2105 -0.56293,-0.5056 z"
         id="path18"
         inkscape:connector-curvature="0" />
    </g>
    <g
       style="fill:#000000;fill-opacity:1;stroke-linejoin:miter"
       id="g24">
      <path
         d="m 396.63974,589.064 v 0 l 6.15341,5.1879 -0.60531,-0.0583 15.52264,-8.6519 -0.0747,0.0503 45.46228,-36.5472 c 0.23028,-0.1851 0.56708,-0.14856 0.7522,0.0817 0.18512,0.2303 0.14856,0.5671 -0.0818,0.75216 v 0 l -45.46231,36.5473 c -0.0234,0.0188 -0.0484,0.0357 -0.0747,0.0503 v 0 l -15.52261,8.65194 c -0.19424,0.10825 -0.43527,0.0851 -0.60532,-0.0583 v 0 l -6.15341,-5.1879 c -0.22592,-0.19035 -0.25461,-0.5279 -0.0642,-0.75377 0.19044,-0.22593 0.52799,-0.25469 0.75388,-0.0642 z"
         id="path22"
         inkscape:connector-curvature="0" />
    </g>
    <g
       style="fill:#000000;fill-opacity:1;stroke-linejoin:miter"
       id="g28">
      <path
         d="m 443.31866,530.7067 v 0 c -0.9776,-1.2872 -1.95916,-2.6242 -1.68596,-6.399 v 0 c 0.2656,-3.6691 1.7236,-9.73946 3.16134,-15.73324 0.0106,-0.0442 0.0268,-0.0869 0.0482,-0.12696 v 0 c 2.9661,-5.56176 5.8873,-11.04534 7.12734,-15.46114 v 0 c 0.59223,-2.10898 0.80206,-3.98114 0.97293,-5.51106 v 0 c 0.11216,-1.0041 0.21131,-1.90633 0.4058,-2.59896 v 0 c 0.12133,-0.43219 0.29351,-0.83719 0.57205,-1.1499 v 0 c 0.42776,-0.48029 1.01358,-0.6467 1.61371,-0.6467 v 0 c 1.37845,3e-5 3.25747,0.89366 4.95022,1.68601 0.26761,0.12527 0.383,0.44375 0.25775,0.71135 -0.1253,0.26762 -0.44378,0.383 -0.71136,0.25773 v 0 c -1.8013,-0.84317 -3.41641,-1.58508 -4.49661,-1.58508 v 0 c -0.40659,0 -0.65399,0.10785 -0.81467,0.2883 v 0 c -0.12372,0.13892 -0.2395,0.36625 -0.34094,0.72757 v 0 c -0.1655,0.58928 -0.25659,1.39004 -0.37256,2.42848 v 0 c -0.1709,1.52995 -0.38794,3.47997 -1.0062,5.68153 v 0 c -1.27859,4.55317 -4.2684,10.15327 -7.21334,15.67537 l 0.0482,-0.127 c -1.44867,6.03946 -2.87698,12.002 -3.13458,15.56095 v 0 c -0.24997,3.45315 0.60846,4.53905 1.47088,5.67465 0.1787,0.2353 0.1328,0.57095 -0.1025,0.74967 -0.23532,0.17873 -0.57092,0.13273 -0.74964,-0.10257 z"
         id="path26"
         inkscape:connector-curvature="0" />
    </g>
    <g
       style="fill:#000000;fill-opacity:1;stroke-linejoin:miter"
       id="g32">
      <path
         d="m 405.0852,409.8456 v 0 c 1.4895,-17.19573 2.98285,-34.56707 11.40006,-48.0116 v 0 c 8.43724,-13.47655 23.78424,-22.95616 44.53586,-23.95094 v 0 c 1.20144,-0.0576 2.41986,-0.0868 3.65358,-0.0868 v 0 c 20.02202,0 43.98265,7.69662 55.33366,26.5162 v 0 c 12.02154,19.93143 9.77728,52.1731 0.53774,71.84595 v 0 c -4.2138,8.97198 -9.8846,15.33917 -15.24056,21.35653 v 0 c -4.88884,5.49259 -9.49902,10.67737 -12.61828,17.31888 v 0 c -0.98816,2.10404 -1.82686,4.35532 -2.47538,6.80814 h -3e-5 c -4.96423,18.77478 1.15692,49.38797 7.33591,80.21817 0.0581,0.28967 -0.12973,0.57163 -0.41946,0.62963 -0.28968,0.0581 -0.5716,-0.12975 -0.62964,-0.4194 v 0 c -6.15369,-30.7039 -12.36524,-61.62542 -7.32123,-80.70193 v 0 c 0.66565,-2.51747 1.52704,-4.82983 2.54135,-6.9895 v 0 c 3.19552,-6.80393 7.9137,-12.09967 12.78752,-17.57541 v 0 c 5.36107,-6.02313 10.93144,-12.28549 15.0713,-21.10001 v 0 c 9.1375,-19.45541 11.2982,-51.30142 -0.4855,-70.83841 v 0 c -11.07577,-18.3633 -34.57953,-25.99883 -54.4174,-25.99883 v 0 c -1.21657,0 -2.4185,0.0288 -3.60237,0.0855 v 0 c -20.43513,0.97965 -35.44605,10.29788 -43.68018,23.45002 v 0 c -8.25418,13.1842 -9.74557,30.27236 -11.24095,47.53613 -0.0255,0.29437 -0.2848,0.51233 -0.57915,0.48684 -0.29437,-0.0255 -0.51233,-0.28482 -0.48685,-0.57917 z"
         id="path30"
         inkscape:connector-curvature="0" />
    </g>
    <g
       style="fill:#000000;fill-opacity:1;stroke-linejoin:miter"
       id="g36">
      <path
         d="m 464.03293,566.9525 -3e-5,-3.5e-4 -0.003,-0.0548 3e-5,3.7e-4 c -1.20834,-22.29071 -2.41403,-44.53297 -3.5284,-63.71293 v 4e-5 l -0.0332,-0.57048 v -2e-5 l -0.0335,-0.57672 v 0 c -1.0839,-18.65586 -1.9324,-34.54076 5.66312,-50.20993 v 0 c 3.21488,-6.63213 7.93695,-13.21313 12.58914,-19.69931 v 0 c 4.59589,-6.40766 9.12304,-12.72238 12.15064,-18.96826 v 0 c 1.29257,-2.66651 2.30694,-5.31104 2.93585,-7.93486 v 0 c 3.5936,-14.99215 -5.32669,-29.64028 -16.44983,-34.45122 v 0 c -2.98472,-1.29093 -6.13467,-1.87578 -9.28808,-1.87578 v 0 c -8.56687,0 -17.12998,4.31856 -22.34204,10.4508 v 0 c -7.12974,8.38845 -8.02622,20.20302 -8.92133,32.2597 -0.0219,0.29467 -0.27847,0.5158 -0.57315,0.49392 -0.29468,-0.0219 -0.51582,-0.27847 -0.49392,-0.57315 v 0 c 0.8882,-11.96357 1.7752,-24.16947 9.1731,-32.87341 v 0 c 5.40227,-6.35606 14.257,-10.82788 23.15734,-10.82788 v 0 c 3.28643,0 6.58249,0.60982 9.71283,1.96374 v 0 c 11.57733,5.00738 20.78613,20.16098 17.06561,35.68268 v 0 c -0.65125,2.71695 -1.69678,5.4358 -3.01355,8.1522 v 0 c -3.07538,6.3444 -7.66156,12.7362 -12.24403,19.1251 v 0 c -4.6649,6.50395 -9.32842,13.00847 -12.49575,19.54246 v 0 c -7.45523,15.37976 -6.64415,30.98221 -5.55777,49.68114 v 0 l 0.0335,0.5767 v -2e-5 l 0.0332,0.57046 v 3e-5 c 1.11438,19.17983 2.3205,41.42953 3.52866,63.71713 l 3e-5,4e-4 0.003,0.0547 c 0.016,0.2947 -0.21024,0.5468 -0.50528,0.56276 -0.29504,0.016 -0.54718,-0.2102 -0.56317,-0.50526 z"
         id="path34"
         inkscape:connector-curvature="0" />
    </g>
    <g
       style="fill:#000000;fill-opacity:1;stroke-linejoin:miter"
       id="g40">
      <path
         d="m 497.2446,562.8316 v 0 l -32.29318,4.51746 c -0.29264,0.0409 -0.56302,-0.16306 -0.60395,-0.45576 -0.0409,-0.2926 0.16309,-0.563 0.45569,-0.60393 v 0 l 32.29321,-4.51747 c 0.29261,-0.0409 0.56303,0.1631 0.60395,0.45576 0.041,0.29254 -0.16309,0.56299 -0.45572,0.60394 z"
         id="path38"
         inkscape:connector-curvature="0" />
    </g>
    <g
       style="fill:#000000;fill-opacity:1;stroke-linejoin:miter"
       id="g44">
      <path
         d="m 405.40817,409.53558 v 0 l 30.78143,0.90406 c 0.29532,0.009 0.52772,0.25512 0.51905,0.55046 -0.009,0.29533 -0.25513,0.52772 -0.55048,0.51906 v 0 l -30.7814,-0.90403 c -0.29535,-0.009 -0.52774,-0.25515 -0.51907,-0.55047 0.009,-0.29536 0.25515,-0.52774 0.55047,-0.51908 z"
         id="path42"
         inkscape:connector-curvature="0" />
    </g>
    <g
       style="fill:#000000;fill-opacity:1;stroke-linejoin:miter"
       id="g48">
      <path
         d="m 186.93925,687.5431 v 0 l 177.10753,0.3249 c 0.29552,5e-4 0.53455,0.2405 0.534,0.53593 -5.2e-4,0.29547 -0.24051,0.53457 -0.53598,0.53397 v 0 l -177.10751,-0.32486 c -0.29546,-5.4e-4 -0.53455,-0.24054 -0.53402,-0.53594 5.5e-4,-0.2955 0.24051,-0.53456 0.53598,-0.534 z"
         id="path46"
         inkscape:connector-curvature="0" />
    </g>
    <g
       style="fill:#000000;fill-opacity:1;stroke-linejoin:miter"
       id="g52">
      <path
         d="m 245.65192,329.36685 c 10.88162,0.6102 21.48272,1.23352 27.98798,6.53 6.50124,5.29325 9.01138,15.35989 10.2142,23.46195 1.1946,8.0467 1.07318,13.92987 0.95053,19.848 -0.004,0.174 0.0777,0.3389 0.21789,0.44203 0.0931,0.0685 0.20441,0.10404 0.31702,0.10404 0.057,0 0.11436,-0.009 0.16983,-0.0277 1.14468,-0.3833 2.17276,-0.72142 3.04385,-0.72142 1.02858,0 1.94958,0.46182 2.34436,2.75074 0.71118,4.1239 -0.48306,13.39871 -2.28286,18.08294 -1.71882,4.47342 -3.89777,4.55082 -6.23197,4.67894 -0.29162,0.016 -0.51655,0.26293 -0.50531,0.55483 l 0.13834,3.58249 c 0.009,0.24138 0.17718,0.43921 0.39947,0.49713 h -0.003 c -0.006,0.0119 -0.0109,0.0241 -0.0158,0.0366 -0.10726,0.2753 0.0289,0.58548 0.30427,0.69272 2.15118,0.83816 4.2781,1.6672 6.23573,2.61496 2.0054,0.97085 3.80797,2.05472 5.253,3.37564 2.86005,2.61438 4.39475,6.21856 5.978,9.95859 0.0556,0.1314 0.16147,0.23515 0.294,0.28815 l 56.2636,22.50253 h -0.004 c 6.95526,9.90507 13.85184,19.73791 17.1207,26.36621 3.24716,6.58413 2.88558,9.94936 2.52998,13.36334 -0.0157,0.15106 0.0335,0.3017 0.1352,0.41418 l 0.0295,0.0325 1.4e-4,1.8e-4 c 3.64002,4.02374 7.14625,7.92092 8.3514,11.45112 1.18566,3.47326 0.1453,6.6392 -0.97694,10.00078 -0.064,0.19165 -0.0145,0.40299 0.12784,0.54642 3.38846,3.4122 6.7507,6.79864 8.90027,9.3692 2.13283,2.55066 3.06631,4.29224 4.014,6.06024 l 0.009,0.0158 5.38744,9.2844 c 0.057,0.0981 0.14363,0.17555 0.2472,0.22114 l 0.0453,0.02 2.7e-4,6e-5 c 6.00275,2.6388 12.14545,5.34364 17.12146,5.54184 0.20178,0.008 0.40154,0.0119 0.59944,0.0119 4.49544,0 8.00337,-2.02759 11.3914,-3.97467 0.1929,-0.11087 0.391,-0.22461 0.58356,-0.33477 l 4e-5,-10e-5 c 3.70007,-2.11734 7.47845,-4.1113 11.26723,-6.1088 h 0.004 c 0.044,0.0114 0.0894,0.0172 0.13488,0.0172 0.11272,0 0.22642,-0.0355 0.32312,-0.10893 0.2353,-0.17872 0.2812,-0.51437 0.1025,-0.74967 -0.86242,-1.1356 -1.72085,-2.2215 -1.47088,-5.67465 0.25644,-3.54291 1.67304,-9.46771 3.11496,-15.47919 h -0.004 c 2.93714,-5.50744 5.91413,-11.08938 7.18924,-15.63013 0.61826,-2.20156 0.8353,-4.15158 1.0062,-5.68153 0.11597,-1.03844 0.20706,-1.8392 0.37256,-2.42848 0.10144,-0.36132 0.21722,-0.58865 0.34094,-0.72757 0.16068,-0.18045 0.40808,-0.2883 0.81467,-0.2883 1.02292,0 2.52551,0.66531 4.21164,1.45187 h -0.005 c 0.0519,5.26768 0.36184,10.72188 0.69384,16.43604 l 0.0335,0.57672 v 2e-5 l 0.0332,0.57048 v -4e-5 c 0.81627,14.04916 1.68154,29.74146 2.56093,45.89216 h -0.005 l -45.38714,36.48684 v 0 l -15.16016,8.44986 v 0 l -5.36127,-4.52005 h -0.004 c -0.0448,-0.22185 -0.22832,-0.39929 -0.46538,-0.42572 -0.0121,-10e-4 -0.0243,-0.003 -0.0365,-0.004 h -0.004 c -0.10036,-0.0845 -0.22269,-0.12579 -0.34439,-0.12579 -0.0848,0 -0.16935,0.02 -0.24587,0.0596 v 0 c -0.22716,-0.0254 -0.45466,-0.0509 -0.6635,-0.0746 -7.5097,-0.8509 -14.8703,-1.9419 -21.88336,-7.5256 -7.46667,-5.94476 -14.56946,-16.9927 -21.7427,-28.16254 -0.0994,-0.15476 -0.26994,-0.24591 -0.45008,-0.24591 -0.028,0 -0.0563,0.002 -0.0846,0.007 -0.20994,0.0336 -0.38004,0.18829 -0.43334,0.39413 -1.8514,7.1454 -3.73097,14.3891 -0.91054,25.14475 0.95316,3.63475 2.44248,7.66729 3.9643,11.7893 2.97844,8.06751 6.06234,16.44695 5.7778,23.21485 -0.42728,10.16314 -8.48608,16.8032 -16.82946,23.6348 -0.20347,0.1666 -0.2557,0.45644 -0.12315,0.68356 6.5853,11.28664 13.13913,22.52194 16.56049,30.91198 3.33346,8.1745 3.68842,13.63946 3.98331,19.09742 v 0 l -175.5558,-0.32203 v 0 l 17.09668,-51.30127 c 0.0523,-0.1568 0.0291,-0.32891 -0.0626,-0.4663 -0.0918,-0.13746 -0.24187,-0.22476 -0.40668,-0.23656 -5.85464,-0.4195 -11.14662,-0.85555 -12.88209,-6.1245 -1.4142,-4.2935 -0.53307,-11.79477 0.54226,-20.81155 0.29579,-2.48045 0.60544,-5.07709 0.87815,-7.72135 1.25654,-12.1831 1.75727,-25.60366 2.2573,-39.0007 0.0101,-0.2699 -0.18252,-0.5049 -0.44903,-0.5481 -0.0288,-0.005 -0.0575,-0.007 -0.0859,-0.007 -0.23409,0 -0.44579,0.15405 -0.51323,0.38515 l -0.0485,0.1662 c -2.61681,8.96574 -5.22554,17.8687 -8.91264,25.49644 -1.55393,3.2149 -3.30011,6.20506 -4.97686,9.07596 -1.52164,2.60544 -2.98867,5.11667 -4.17793,7.577 -0.62401,1.291 -1.17399,2.57256 -1.618,3.85406 -0.71038,2.05034 -1.14199,4.0794 -1.45945,6.0216 -0.19184,1.17354 -0.34262,2.31974 -0.48711,3.41784 -0.13515,1.0272 -0.26498,2.01344 -0.41832,2.9515 -0.2612,1.59795 -0.58754,3.03575 -1.11001,4.2861 -1.6746,4.0074 -5.44304,6.2929 -9.44606,8.6498 v 0 l -16.56984,-4.3421 -0.003,-8e-4 c -0.97322,-0.24926 -2.06673,-0.54266 -3.12099,-0.54266 -0.88113,0 -1.73486,0.20496 -2.468,0.81186 l -3e-5,3e-5 c -0.36438,0.30164 -0.68733,0.69597 -1.01173,1.08917 h -4e-5 c -0.45381,0.5501 -0.96263,1.1656 -1.72406,1.79596 -1.06634,0.88274 -2.65493,1.81524 -5.29246,2.55254 -5.95604,1.665 -17.09204,2.3022 -28.33795,2.9422 -0.0387,0.002 -0.0769,0.009 -0.11417,0.019 -4.377495,1.2283 -8.624016,2.4125 -11.854485,2.4125 -0.419571,0 -0.822005,-0.02 -1.20536,-0.0625 h -3.1e-5 c -1.903444,-0.21069 -3.351349,-0.98243 -4.593784,-1.64837 -0.81253,-0.43561 -1.62925,-0.88343 -2.3984,-0.96851 l -6.4e-5,-5e-5 c -0.04128,-0.005 -0.07749,-0.008 -0.119876,-0.0104 l -1.65e-4,-5e-5 c -0.0506,-0.003 -0.100785,-0.005 -0.150585,-0.005 -0.90024,0 -1.66986,0.50128 -2.35889,0.93215 h -3e-5 c -0.84433,0.5279 -1.71701,1.0668 -2.93456,1.2013 -0.21725,0.024 -0.43733,0.0357 -0.65718,0.0357 -1.78143,0 -3.548536,-0.7707 -3.68921,-2.04555 -0.01742,-0.1579 -0.01379,-0.33205 0.01775,-0.52495 v 5e-5 c 0.06345,-0.38795 0.23991,-0.85315 0.58691,-1.4018 2.244175,-3.54865 10.73372,-9.43025 19.42995,-15.43975 0.13124,-0.0906 0.21518,-0.2353 0.22888,-0.3942 0.18796,-2.1794 0.41504,-4.7708 -3.35263,-5.9785 -1.14073,-0.3656 -2.652494,-0.60515 -4.28604,-0.8657 -2.117904,-0.33784 -4.48724,-0.7167 -6.7408,-1.4391 -1.391585,-0.446 -2.727095,-1.0199 -3.917845,-1.78607 -3.312015,-2.13113 -5.418715,-5.64996 -5.089205,-7.66589 0.124926,-0.76434 0.60564,-1.36084 1.70778,-1.59808 h 3e-5 c 0.37948,-0.0818 0.820215,-0.11966 1.31482,-0.11966 2.82861,0 7.41938,1.23855 12.39398,2.59463 3.410266,0.92967 6.94466,1.89362 10.05707,2.46337 3.213685,0.5884 5.97212,0.7557 8.40308,0.7557 1.72809,0 3.29069,-0.0846 4.7337,-0.16255 1.2548,-0.0679 2.40614,-0.12975 3.49851,-0.12975 0.50052,0 0.98865,0.013 1.46868,0.0444 h 3e-5 c 4.42118,0.28894 8.20362,2.14429 12.09302,4.05921 0.076,0.0374 0.15652,0.0551 0.23585,0.0551 0.19744,0 0.38733,-0.10976 0.48043,-0.29885 0.13051,-0.26515 0.0214,-0.58575 -0.24367,-0.71625 -0.294,-0.1448 -0.5886,-0.28985 -0.88408,-0.4345 h -0.001 l 3.52732,-5.3973 c 0.0482,-0.0738 0.0774,-0.15837 0.0851,-0.2461 0.52469,-6.0105 1.0441,-11.90714 2.8034,-16.35764 l -1e-5,-6e-5 c 1.24666,-3.1538 3.1244,-5.598 4.93889,-7.9555 h -2e-5 c 0.72832,-0.9462 1.45108,-1.8851 2.10436,-2.8387 h -2e-5 c 2.27678,-3.32354 3.7103,-6.8228 5.1218,-10.2634 0.0457,-0.1114 0.0525,-0.2349 0.0192,-0.35067 -0.58623,-2.04248 -1.19845,-4.06689 0.86245,-9.72123 2.08864,-5.7307 6.88887,-15.09237 11.71774,-24.5076 0.037,-0.0721 0.0571,-0.1518 0.0589,-0.2328 0.23287,-11.0038 0.46567,-21.96482 2.27973,-33.03825 1.803,-11.0061 5.17006,-22.13613 8.56003,-33.30719 h -0.002 l 58.98463,-31.89581 c 0.079,-0.0427 0.14603,-0.10465 0.19479,-0.18011 l 3.35151,-5.18366 h -0.002 c 0.0136,-0.005 0.0272,-0.01 0.0406,-0.0156 0.2433,-0.10489 0.36902,-0.36884 0.30802,-0.61796 h -0.002 c 0.0204,-0.17687 -0.0485,-0.35787 -0.19226,-0.47543 h -0.002 c -2.90442,-6.73755 -5.77701,-13.4664 -7.84813,-21.66922 -2.11281,-8.36798 -3.39447,-18.28357 -3.88919,-26.02423 -0.49407,-7.73044 -0.20275,-13.28192 0.09,-18.85687 10e-4,-0.0277 7.5e-4,-0.0555 -0.002,-0.0831 -0.54439,-5.2564 -1.06296,-10.35697 0.65263,-15.0106 1.71404,-4.6494 5.68501,-8.90186 10.53835,-11.29892 4.84752,-2.39423 10.58052,-2.94528 16.44151,-3.49753 z"
         id="path50"
         style="fill:#ffe4e1"
         inkscape:connector-curvature="0" />
    </g>
    <g
       style="fill:#000000;fill-opacity:1;stroke-linejoin:miter"
       id="g56">
      <path
         d="m 464.6747,338.86627 c 19.83787,0 43.34163,7.63553 54.4174,25.99887 11.7837,19.53699 9.623,51.383 0.4855,70.83841 -4.13986,8.81452 -9.71023,15.07688 -15.0713,21.10001 -4.87382,5.47574 -9.592,10.77148 -12.78752,17.57541 -1.01431,2.15967 -1.8757,4.47203 -2.54135,6.9895 -5.03259,19.03335 1.1395,49.85828 7.27947,80.49359 h -0.005 l -31.38533,4.39044 v 0 c -1.19752,-22.0909 -2.39225,-44.1184 -3.49684,-63.12973 v -3e-5 l -0.0332,-0.57046 v 2e-5 l -0.0335,-0.5767 c -1.08638,-18.69893 -1.89746,-34.30138 5.55777,-49.68114 3.16733,-6.53399 7.83085,-13.03851 12.49575,-19.54246 4.58247,-6.3889 9.16865,-12.7807 12.24403,-19.1251 1.31677,-2.7164 2.3623,-5.43525 3.01355,-8.1522 3.72052,-15.5217 -5.48828,-30.6753 -17.06561,-35.68268 -3.13034,-1.35392 -6.4264,-1.96374 -9.71283,-1.96374 -8.90034,0 -17.75507,4.47182 -23.15734,10.82788 -7.1709,8.43689 -8.22435,20.16414 -9.09117,31.77167 v 0 l -29.59909,-0.86933 h -0.004 c 1.48472,-17.13452 3.01438,-34.0691 11.20807,-47.1567 8.23413,-13.15214 23.24505,-22.47037 43.68018,-23.45002 1.18387,-0.0568 2.3858,-0.0855 3.60237,-0.0855 z"
         id="path54"
         style="fill:#b50000;fill-opacity:1"
         inkscape:connector-curvature="0" />
    </g>
    <g
       style="fill:#000000;fill-opacity:1;stroke-linejoin:miter"
       id="g60">
      <path
         d="m 489.73215,475.48093 1.2e-4,3e-5 0.05,0.006 -1.2e-4,-2e-5 c 3.80178,0.44466 8.98858,0.9082 8.85003,3.5558 v 0 c -0.12149,2.32193 -4.95163,6.03766 -9.26132,9.41684 l -0.0678,-0.8873 c 3.08389,1.73476 6.40048,3.57859 7.74561,6.04581 v 0 c 1.36953,2.51199 0.66055,5.56765 0.041,8.34207 l -0.3058,-0.60589 0.0348,0.0154 h -4e-5 c 3.28412,1.45185 7.72992,3.2832 6.33894,6.612 v 0 c -1.22373,2.92847 -7.34803,6.9055 -13.14686,10.70215 l 0.23044,-0.55792 0.74362,3.52817 -0.76138,-0.36887 0.038,-0.0188 10e-4,-6e-4 c 1.12979,-0.5578 2.40903,-1.19553 3.67775,-1.19553 v 0 c 0.55333,0 1.10625,0.11926 1.64592,0.40923 v 0 c 1.70044,0.91364 3.3439,3.6479 2.46561,5.8603 v 0 c -0.8487,2.1379 -4.05838,3.50384 -6.86469,4.736 -0.27054,0.1188 -0.58614,-0.004 -0.70494,-0.27476 -0.11882,-0.27054 0.004,-0.58618 0.27477,-0.70494 v 0 c 3.02951,-1.3302 5.65536,-2.5264 6.30035,-4.1511 v 0 c 0.6153,-1.5499 -0.59,-3.7775 -1.97752,-4.523 v 0 c -0.37032,-0.19896 -0.7472,-0.2818 -1.1395,-0.2818 v 0 c -0.96995,0 -2.01195,0.49654 -3.20405,1.0851 l 0.001,-5.5e-4 -0.038,0.0188 c -0.14924,0.0737 -0.32298,0.0742 -0.47166,0.002 -0.14868,-0.0722 -0.25564,-0.2091 -0.28974,-0.3708 v 0 l -0.74362,-3.52816 c -0.0455,-0.2157 0.046,-0.4372 0.23044,-0.55794 v 0 c 6.00626,-3.9324 11.68591,-7.68334 12.74573,-10.21953 v 0 c 0.88498,-2.11783 -1.8537,-3.48317 -5.7843,-5.22083 h -3e-5 l -0.0348,-0.0154 c -0.23337,-0.10318 -0.36139,-0.35684 -0.30579,-0.60589 v 0 c 0.64626,-2.89435 1.20326,-5.50669 0.0638,-7.59671 v 0 c -1.16358,-2.13419 -4.13114,-3.82563 -7.33076,-5.62546 -0.15579,-0.0876 -0.25754,-0.24728 -0.27114,-0.4255 -0.0136,-0.17823 0.0627,-0.3515 0.20333,-0.4618 v 0 c 4.64267,-3.64026 8.76474,-6.94385 8.853,-8.6307 v 0 c 0.0704,-1.3454 -3.20833,-1.8877 -7.90583,-2.43717 l -1.2e-4,-3e-5 -0.05,-0.006 c -0.29334,-0.0343 -0.50342,-0.30004 -0.4691,-0.59351 0.0343,-0.29345 0.3001,-0.50353 0.59355,-0.4692 z"
         id="path58"
         inkscape:connector-curvature="0" />
    </g>
    <g
       style="fill:#000000;fill-opacity:1;stroke-linejoin:miter"
       id="g64">
      <path
         d="m 488.9252,488.58725 v 0 c 3.14334,1.76923 6.03818,3.44125 7.184,5.54288 1.13943,2.08984 0.5825,4.70251 -0.0638,7.59674 -0.0556,0.24905 0.0724,0.50271 0.30582,0.60589 3.94482,1.74387 6.70746,3.11024 5.81909,5.23621 -1.04085,2.491 -6.53975,6.15463 -12.42658,10.01053 v 0 c -1.32667,-10.79648 -1.81741,-20.6885 -0.82345,-28.99225 z"
         id="path62"
         style="fill:#ffe4e1;fill-opacity:1"
         inkscape:connector-curvature="0" />
    </g>
    <g
       style="fill:#000000;fill-opacity:1;stroke-linejoin:miter"
       id="g68">
      <path
         d="m 491.82343,476.82 c 3.50317,0.4757 5.79925,1.03754 5.7402,2.1667 -0.0859,1.64135 -3.99106,4.81356 -8.47876,8.33706 h -3e-5 c 0.28131,-1.99478 0.65381,-3.89206 1.12701,-5.68176 h 3e-5 c 0.44892,-1.6979 0.98899,-3.29923 1.60662,-4.822 z"
         id="path66"
         style="fill:#ffe4e1;fill-opacity:1"
         inkscape:connector-curvature="0" />
    </g>
    <g
       style="fill:#000000;fill-opacity:1;stroke-linejoin:miter"
       id="g72">
      <path
         d="m 493.9402,521.14 c 0.3923,0 0.76918,0.0828 1.1395,0.2818 1.38752,0.7455 2.59282,2.9731 1.97752,4.523 -0.59125,1.48934 -2.84702,2.61855 -5.55242,3.82107 v 0 c -0.4115,-2.52631 -0.7935,-5.02027 -1.13877,-7.47437 h 0.005 c 0.0298,0.005 0.0599,0.008 0.0901,0.008 0.0814,0 0.1629,-0.0185 0.23817,-0.0557 l 0.0369,-0.0183 h 7e-5 c 1.1921,-0.58856 2.2341,-1.0851 3.20405,-1.0851 z"
         id="path70"
         style="fill:#ffe4e1;fill-opacity:1"
         inkscape:connector-curvature="0" />
    </g>
  </g>
</svg>
