<?xml version="1.0" encoding="UTF-8" standalone="no"?>
<svg
   xmlns:dc="http://purl.org/dc/elements/1.1/"
   xmlns:cc="http://creativecommons.org/ns#"
   xmlns:rdf="http://www.w3.org/1999/02/22-rdf-syntax-ns#"
   xmlns:svg="http://www.w3.org/2000/svg"
   xmlns="http://www.w3.org/2000/svg"
   xmlns:sodipodi="http://sodipodi.sourceforge.net/DTD/sodipodi-0.dtd"
   xmlns:inkscape="http://www.inkscape.org/namespaces/inkscape"
   id="trend-chart"
   width="577.41211"
   height="360.16992"
   title="Stack Overflow Trends Chart"
   version="1.1"
   sodipodi:docname="stackoverflow_questions.svg"
   inkscape:version="0.92.5 (2060ec1f9f, 2020-04-08)">
  <metadata
     id="metadata299">
    <rdf:RDF>
      <cc:Work
         rdf:about="">
        <dc:format>image/svg+xml</dc:format>
        <dc:type
           rdf:resource="http://purl.org/dc/dcmitype/StillImage" />
        <dc:title></dc:title>
      </cc:Work>
    </rdf:RDF>
  </metadata>
  <defs
     id="defs297" />
  <sodipodi:namedview
     pagecolor="#ffffff"
     bordercolor="#666666"
     borderopacity="1"
     objecttolerance="10"
     gridtolerance="10"
     guidetolerance="10"
     inkscape:pageopacity="0"
     inkscape:pageshadow="2"
     inkscape:window-width="2488"
     inkscape:window-height="1376"
     id="namedview295"
     showgrid="false"
     fit-margin-top="0"
     fit-margin-left="0"
     fit-margin-right="0"
     fit-margin-bottom="0"
     inkscape:zoom="2.1030303"
     inkscape:cx="211.49368"
     inkscape:cy="199.66457"
     inkscape:window-x="72"
     inkscape:window-y="27"
     inkscape:window-maximized="1"
     inkscape:current-layer="g256" />
  <g
     id="g2"
     transform="translate(-22.882812,-20)" />
  <g
     class="chart-area"
     transform="translate(77.117188)"
     id="g256">
    <g
       transform="translate(0,300)"
       font-size="10"
       id="g84"
       style="font-size:10px;font-family:sans-serif;text-anchor:middle;fill:none">
      <path
         class="domain"
         d="M 0.5,6 V 0.5 h 410 V 6"
         id="path4"
         inkscape:connector-curvature="0"
         style="stroke:#000000" />
      <g
         class="tick"
         transform="translate(12.884301)"
         id="g10"
         style="opacity:1">
        <line
           y2="6"
           x1="0.5"
           x2="0.5"
           id="line6"
           y1="0"
           style="stroke:#000000" />
        <text
           y="7.4967771"
           x="-6.1452599"
           dy="8.5199995"
           style="font-size:12px;fill:#000000"
           id="text8"
           transform="rotate(-30)">2009</text>
      </g>
      <g
         class="tick"
         transform="translate(43.612991)"
         id="g16"
         style="opacity:1">
        <line
           y2="6"
           x1="0.5"
           x2="0.5"
           id="line12"
           y1="0"
           style="stroke:#000000" />
        <text
           y="7.5084958"
           x="-6.1484003"
           dy="8.5199995"
           style="font-size:12px;fill:#000000"
           id="text14"
           transform="rotate(-30)">2010</text>
      </g>
      <g
         class="tick"
         transform="translate(74.341681)"
         id="g22"
         style="opacity:1">
        <line
           y2="6"
           x1="0.5"
           x2="0.5"
           id="line18"
           y1="0"
           style="stroke:#000000" />
        <text
           y="7.4308591"
           x="-6.1275973"
           dy="8.5199995"
           style="font-size:12px;fill:#000000"
           id="text20"
           transform="rotate(-30)">2011</text>
      </g>
      <g
         class="tick"
         transform="translate(105.07037)"
         id="g28"
         style="opacity:1">
        <line
           y2="6"
           x1="0.5"
           x2="0.5"
           id="line24"
           y1="0"
           style="stroke:#000000" />
        <text
           y="7.4074216"
           x="-6.1213174"
           dy="8.5199995"
           style="font-size:12px;fill:#000000"
           id="text26"
           transform="rotate(-30)">2012</text>
      </g>
      <g
         class="tick"
         transform="translate(135.88325)"
         id="g34"
         style="opacity:1">
        <line
           y2="6"
           x1="0.5"
           x2="0.5"
           id="line30"
           y1="0"
           style="stroke:#000000" />
        <text
           y="7.4674802"
           x="-6.1374102"
           dy="8.5199995"
           style="font-size:12px;fill:#000000"
           id="text32"
           transform="rotate(-30)">2013</text>
      </g>
      <g
         class="tick"
         transform="translate(166.61194)"
         id="g40"
         style="opacity:1">
        <line
           y2="6"
           x1="0.5"
           x2="0.5"
           id="line36"
           y1="0"
           style="stroke:#000000" />
        <text
           y="7.5392575"
           x="-6.1566424"
           dy="8.5199995"
           style="font-size:12px;fill:#000000"
           id="text38"
           transform="rotate(-30)">2014</text>
      </g>
      <g
         class="tick"
         transform="translate(197.34063)"
         id="g46"
         style="opacity:1">
        <line
           y2="6"
           x1="0.5"
           x2="0.5"
           id="line42"
           y1="0"
           style="stroke:#000000" />
        <text
           y="7.4455075"
           x="-6.1315222"
           dy="8.5199995"
           style="font-size:12px;fill:#000000"
           id="text44"
           transform="rotate(-30)">2015</text>
      </g>
      <g
         class="tick"
         transform="translate(228.06932)"
         id="g52"
         style="opacity:1">
        <line
           y2="6"
           x1="0.5"
           x2="0.5"
           id="line48"
           y1="0"
           style="stroke:#000000" />
        <text
           y="7.5187497"
           x="-6.1511474"
           dy="8.5199995"
           style="font-size:12px;fill:#000000"
           id="text50"
           transform="rotate(-30)">2016</text>
      </g>
      <g
         class="tick"
         transform="translate(258.8822)"
         id="g58"
         style="opacity:1">
        <line
           y2="6"
           x1="0.5"
           x2="0.5"
           id="line54"
           y1="0"
           style="stroke:#000000" />
        <text
           y="7.4513669"
           x="-6.1330924"
           dy="8.5199995"
           style="font-size:12px;fill:#000000"
           id="text56"
           transform="rotate(-30)">2017</text>
      </g>
      <g
         class="tick"
         transform="translate(289.61089)"
         id="g64"
         style="opacity:1">
        <line
           y2="6"
           x1="0.5"
           x2="0.5"
           id="line60"
           y1="0"
           style="stroke:#000000" />
        <text
           y="7.5026364"
           x="-6.1468301"
           dy="8.5199995"
           style="font-size:12px;fill:#000000"
           id="text62"
           transform="rotate(-30)">2018</text>
      </g>
      <g
         class="tick"
         transform="translate(320.33958)"
         id="g70"
         style="opacity:1">
        <line
           y2="6"
           x1="0.5"
           x2="0.5"
           id="line66"
           y1="0"
           style="stroke:#000000" />
        <text
           y="7.4967771"
           x="-6.1452599"
           dy="8.5199995"
           style="font-size:12px;fill:#000000"
           id="text68"
           transform="rotate(-30)">2019</text>
      </g>
      <g
         class="tick"
         transform="translate(351.06827)"
         id="g76"
         style="opacity:1">
        <line
           y2="6"
           x1="0.5"
           x2="0.5"
           id="line72"
           y1="0"
           style="stroke:#000000" />
        <text
           y="7.5084958"
           x="-6.1484003"
           dy="8.5199995"
           style="font-size:12px;fill:#000000"
           id="text74"
           transform="rotate(-30)">2020</text>
      </g>
      <g
         class="tick"
         transform="translate(381.88114)"
         id="g82"
         style="opacity:1">
        <line
           y2="6"
           x1="0.5"
           x2="0.5"
           id="line78"
           y1="0"
           style="stroke:#000000" />
        <text
           y="7.4308591"
           x="-6.1275973"
           dy="8.5199995"
           style="font-size:12px;fill:#000000"
           id="text80"
           transform="rotate(-30)">2021</text>
      </g>
    </g>
    <g
       class="grid-lines"
       transform="translate(0,300)"
       font-size="10"
       id="g140"
       style="font-size:10px;font-family:sans-serif;text-anchor:middle;fill:none">
      <path
         class="domain"
         d="M 0.5,-300 V 0.5 h 410 V -300"
         id="path86"
         inkscape:connector-curvature="0"
         style="stroke:#000000" />
      <g
         class="tick"
         transform="translate(12.884301)"
         id="g90"
         style="opacity:1">
        <line
           y2="-300"
           x1="0.5"
           x2="0.5"
           style="fill:none;stroke:#cccccc"
           id="line88"
           y1="0" />
      </g>
      <g
         class="tick"
         transform="translate(43.612991)"
         id="g94"
         style="opacity:1">
        <line
           y2="-300"
           x1="0.5"
           x2="0.5"
           style="fill:none;stroke:#cccccc"
           id="line92"
           y1="0" />
      </g>
      <g
         class="tick"
         transform="translate(74.341681)"
         id="g98"
         style="opacity:1">
        <line
           y2="-300"
           x1="0.5"
           x2="0.5"
           style="fill:none;stroke:#cccccc"
           id="line96"
           y1="0" />
      </g>
      <g
         class="tick"
         transform="translate(105.07037)"
         id="g102"
         style="opacity:1">
        <line
           y2="-300"
           x1="0.5"
           x2="0.5"
           style="fill:none;stroke:#cccccc"
           id="line100"
           y1="0" />
      </g>
      <g
         class="tick"
         transform="translate(135.88325)"
         id="g106"
         style="opacity:1">
        <line
           y2="-300"
           x1="0.5"
           x2="0.5"
           style="fill:none;stroke:#cccccc"
           id="line104"
           y1="0" />
      </g>
      <g
         class="tick"
         transform="translate(166.61194)"
         id="g110"
         style="opacity:1">
        <line
           y2="-300"
           x1="0.5"
           x2="0.5"
           style="fill:none;stroke:#cccccc"
           id="line108"
           y1="0" />
      </g>
      <g
         class="tick"
         transform="translate(197.34063)"
         id="g114"
         style="opacity:1">
        <line
           y2="-300"
           x1="0.5"
           x2="0.5"
           style="fill:none;stroke:#cccccc"
           id="line112"
           y1="0" />
      </g>
      <g
         class="tick"
         transform="translate(228.06932)"
         id="g118"
         style="opacity:1">
        <line
           y2="-300"
           x1="0.5"
           x2="0.5"
           style="fill:none;stroke:#cccccc"
           id="line116"
           y1="0" />
      </g>
      <g
         class="tick"
         transform="translate(258.8822)"
         id="g122"
         style="opacity:1">
        <line
           y2="-300"
           x1="0.5"
           x2="0.5"
           style="fill:none;stroke:#cccccc"
           id="line120"
           y1="0" />
      </g>
      <g
         class="tick"
         transform="translate(289.61089)"
         id="g126"
         style="opacity:1">
        <line
           y2="-300"
           x1="0.5"
           x2="0.5"
           style="fill:none;stroke:#cccccc"
           id="line124"
           y1="0" />
      </g>
      <g
         class="tick"
         transform="translate(320.33958)"
         id="g130"
         style="opacity:1">
        <line
           y2="-300"
           x1="0.5"
           x2="0.5"
           style="fill:none;stroke:#cccccc"
           id="line128"
           y1="0" />
      </g>
      <g
         class="tick"
         transform="translate(351.06827)"
         id="g134"
         style="opacity:1">
        <line
           y2="-300"
           x1="0.5"
           x2="0.5"
           style="fill:none;stroke:#cccccc"
           id="line132"
           y1="0" />
      </g>
      <g
         class="tick"
         transform="translate(381.88114)"
         id="g138"
         style="opacity:1">
        <line
           y2="-300"
           x1="0.5"
           x2="0.5"
           style="fill:none;stroke:#cccccc"
           id="line136"
           y1="0" />
      </g>
    </g>
    <text
       x="205"
       y="360"
       class="axis-label x-axis-label"
       style="font-weight:bold;text-anchor:middle"
       id="text142">Year</text>
    <g
       font-size="10"
       id="g200"
       style="font-size:10px;font-family:sans-serif;text-anchor:end;fill:none">
      <path
         class="domain"
         d="M -6,300.5 H 0.5 V 0.5 H -6"
         id="path144"
         inkscape:connector-curvature="0"
         style="stroke:#000000" />
      <g
         class="tick"
         transform="translate(0,300)"
         id="g150"
         style="opacity:1">
        <line
           x2="-6"
           y1="0.5"
           y2="0.5"
           id="line146"
           x1="0"
           style="stroke:#000000" />
        <text
           x="-9"
           y="0.5"
           dy="0.31999999em"
           style="font-size:12px;fill:#000000"
           id="text148">0.00%</text>
      </g>
      <g
         class="tick"
         transform="translate(0,264.70588)"
         id="g156"
         style="opacity:1">
        <line
           x2="-6"
           y1="0.5"
           y2="0.5"
           id="line152"
           x1="0"
           style="stroke:#000000" />
        <text
           x="-9"
           y="0.5"
           dy="0.31999999em"
           style="font-size:12px;fill:#000000"
           id="text154">2.00%</text>
      </g>
      <g
         class="tick"
         transform="translate(0,229.41176)"
         id="g162"
         style="opacity:1">
        <line
           x2="-6"
           y1="0.5"
           y2="0.5"
           id="line158"
           x1="0"
           style="stroke:#000000" />
        <text
           x="-9"
           y="0.5"
           dy="0.31999999em"
           style="font-size:12px;fill:#000000"
           id="text160">4.00%</text>
      </g>
      <g
         class="tick"
         transform="translate(0,194.11765)"
         id="g168"
         style="opacity:1">
        <line
           x2="-6"
           y1="0.5"
           y2="0.5"
           id="line164"
           x1="0"
           style="stroke:#000000" />
        <text
           x="-9"
           y="0.5"
           dy="0.31999999em"
           style="font-size:12px;fill:#000000"
           id="text166">6.00%</text>
      </g>
      <g
         class="tick"
         transform="translate(0,158.82353)"
         id="g174"
         style="opacity:1">
        <line
           x2="-6"
           y1="0.5"
           y2="0.5"
           id="line170"
           x1="0"
           style="stroke:#000000" />
        <text
           x="-9"
           y="0.5"
           dy="0.31999999em"
           style="font-size:12px;fill:#000000"
           id="text172">8.00%</text>
      </g>
      <g
         class="tick"
         transform="translate(0,123.52941)"
         id="g180"
         style="opacity:1">
        <line
           x2="-6"
           y1="0.5"
           y2="0.5"
           id="line176"
           x1="0"
           style="stroke:#000000" />
        <text
           x="-9"
           y="0.5"
           dy="0.31999999em"
           style="font-size:12px;fill:#000000"
           id="text178">10.00%</text>
      </g>
      <g
         class="tick"
         transform="translate(0,88.235294)"
         id="g186"
         style="opacity:1">
        <line
           x2="-6"
           y1="0.5"
           y2="0.5"
           id="line182"
           x1="0"
           style="stroke:#000000" />
        <text
           x="-9"
           y="0.5"
           dy="0.31999999em"
           style="font-size:12px;fill:#000000"
           id="text184">12.00%</text>
      </g>
      <g
         class="tick"
         transform="translate(0,52.941176)"
         id="g192"
         style="opacity:1">
        <line
           x2="-6"
           y1="0.5"
           y2="0.5"
           id="line188"
           x1="0"
           style="stroke:#000000" />
        <text
           x="-9"
           y="0.5"
           dy="0.31999999em"
           style="font-size:12px;fill:#000000"
           id="text190">14.00%</text>
      </g>
      <g
         class="tick"
         transform="translate(0,17.647059)"
         id="g198"
         style="opacity:1">
        <line
           x2="-6"
           y1="0.5"
           y2="0.5"
           id="line194"
           x1="0"
           style="stroke:#000000" />
        <text
           x="-9"
           y="0.5"
           dy="0.31999999em"
           style="font-size:12px;fill:#000000"
           id="text196">16.00%</text>
      </g>
    </g>
    <g
       class="grid-lines"
       font-size="10"
       id="g240"
       style="font-size:10px;font-family:sans-serif;text-anchor:end;fill:none">
      <path
         class="domain"
         d="M 410,300.5 H 0.5 V 0.5 H 410"
         id="path202"
         inkscape:connector-curvature="0"
         style="stroke:#000000" />
      <g
         class="tick"
         transform="translate(0,300)"
         id="g206"
         style="opacity:1">
        <line
           x2="410"
           y1="0.5"
           y2="0.5"
           style="fill:none;stroke:#cccccc"
           id="line204"
           x1="0" />
      </g>
      <g
         class="tick"
         transform="translate(0,264.70588)"
         id="g210"
         style="opacity:1">
        <line
           x2="410"
           y1="0.5"
           y2="0.5"
           style="fill:none;stroke:#cccccc"
           id="line208"
           x1="0" />
      </g>
      <g
         class="tick"
         transform="translate(0,229.41176)"
         id="g214"
         style="opacity:1">
        <line
           x2="410"
           y1="0.5"
           y2="0.5"
           style="fill:none;stroke:#cccccc"
           id="line212"
           x1="0" />
      </g>
      <g
         class="tick"
         transform="translate(0,194.11765)"
         id="g218"
         style="opacity:1">
        <line
           x2="410"
           y1="0.5"
           y2="0.5"
           style="fill:none;stroke:#cccccc"
           id="line216"
           x1="0" />
      </g>
      <g
         class="tick"
         transform="translate(0,158.82353)"
         id="g222"
         style="opacity:1">
        <line
           x2="410"
           y1="0.5"
           y2="0.5"
           style="fill:none;stroke:#cccccc"
           id="line220"
           x1="0" />
      </g>
      <g
         class="tick"
         transform="translate(0,123.52941)"
         id="g226"
         style="opacity:1">
        <line
           x2="410"
           y1="0.5"
           y2="0.5"
           style="fill:none;stroke:#cccccc"
           id="line224"
           x1="0" />
      </g>
      <g
         class="tick"
         transform="translate(0,88.235294)"
         id="g230"
         style="opacity:1">
        <line
           x2="410"
           y1="0.5"
           y2="0.5"
           style="fill:none;stroke:#cccccc"
           id="line228"
           x1="0" />
      </g>
      <g
         class="tick"
         transform="translate(0,52.941176)"
         id="g234"
         style="opacity:1">
        <line
           x2="410"
           y1="0.5"
           y2="0.5"
           style="fill:none;stroke:#cccccc"
           id="line232"
           x1="0" />
      </g>
      <g
         class="tick"
         transform="translate(0,17.647059)"
         id="g238"
         style="opacity:1">
        <line
           x2="410"
           y1="0.5"
           y2="0.5"
           style="fill:none;stroke:#cccccc"
           id="line236"
           x1="0" />
      </g>
    </g>
    <g
       class="lines"
       id="g254">
      <path
         class="line"
         d="M 2.6098339,299.23683 5.1354797,300 l 2.6133418,-0.14068 2.5256455,-0.007 2.609834,-0.75073 2.609834,-0.014 2.357269,0.56384 2.606327,-0.65505 2.525645,0.86541 2.609834,-0.17685 2.525646,-2.48985 2.609834,0.24552 2.609834,-4.8884 2.525646,3.86991 2.613341,-0.77491 2.525646,0.57988 2.609834,0.0524 2.609834,-1.12151 2.357269,0.11208 2.606326,-0.95181 2.525646,0.9289 2.609834,-0.85852 2.525646,-1.2225 2.609834,-1.06002 2.609834,1.04277 2.525645,0.89631 2.613342,-0.21479 2.525646,0.47939 2.609834,0.14425 2.609834,-1.34158 2.357269,-0.52792 2.606326,-1.40567 2.525646,1.2832 2.609834,-0.39671 2.525646,-0.0506 2.609834,-1.70514 2.609834,-0.92013 2.525645,-0.22256 2.613342,0.98181 2.525649,-0.6148 2.60983,-0.0338 2.60983,-1.10969 2.44146,-0.14978 2.60633,0.19346 2.52564,0.0398 2.60984,-1.65394 2.52564,-0.80009 2.60984,0.33008 2.60983,-0.5449 2.52565,-0.78324 2.61334,-1.13548 2.52564,0.19607 2.60984,-1.06901 2.60983,-2.22355 2.35727,0.34068 2.60633,-0.11696 2.52564,0.0339 2.60984,-0.92586 2.52564,0.13641 2.60984,-0.21173 2.60983,1.65104 2.52565,-1.7656 2.61334,-1.88675 2.52564,1.56113 2.60984,-1.64734 2.60983,-2.59676 2.35727,0.69593 2.60633,-0.92046 2.52564,-1.08782 2.60984,-0.1482 2.52564,-0.2594 2.60984,-0.45481 2.60983,1.56935 2.52565,-3.2222 2.61334,-0.29114 2.52564,1.84065 2.60984,-1.80632 2.60983,-2.61042 2.35727,-1.97405 2.60633,2.18343 2.52564,-1.65503 2.60984,0.34884 2.52564,-3.74897 2.60984,1.98245 2.60983,0.92738 2.52565,-1.81529 2.61334,-0.20044 2.52564,2.54208 2.60984,-1.96003 2.60983,0.7653 2.44146,-1.72313 2.60633,-1.64821 2.52564,1.6252 2.60984,-1.61903 2.52564,-0.36827 2.60984,0.59625 2.60983,2.84261 2.52564,-4.23825 2.61335,2.28662 2.52564,1.59575 2.60984,-0.59382 2.60983,-2.22549 2.35727,-3.26447 2.60633,-1.82878 2.52564,1.2843 2.60984,-3.23033 2.52564,-0.98168 2.60984,-0.46908 2.60983,-0.50273 2.52564,-1.17108 2.61335,0.025 2.52564,1.9888 2.60984,-1.09225 2.60983,-5.80463 2.35727,-0.17283 2.60633,0.69521 2.52564,1.60523 2.60984,-1.52655 2.52564,2.59196 2.60984,2.82804 2.60983,-0.2358 2.52564,-1.89044 2.61335,-2.05253 2.52564,4.61894 2.60984,-1.27604 2.60983,-4.68398 2.35727,2.05969 2.60633,-3.6776 2.52564,2.84285 2.60984,-1.27441 2.52564,2.25462 2.60983,-1.80434 2.60984,0.0305 2.52564,0.22371 2.61335,-0.3154 2.52564,1.26285 2.60984,-0.0807 2.60983,-7.14985 2.44146,-0.85026 2.60632,-1.64108 2.52565,2.67268 2.60983,1.03949 2.52565,3.42337 2.60983,-1.03895 2.60984,-5.89823 2.52564,-3.77154 2.61334,0.26726 2.52565,5.72876 2.60983,3.40795 2.60984,-2.07646 2.35727,-3.58214 2.60632,-0.65138 2.52565,1.36959 2.60983,3.07729 2.52565,0.79361 2.60983,-0.28876 2.60984,1.70953 2.52564,-4.84741 2.61334,1.61182 2.52565,6.48266"
         data-legend="r"
         style="fill:none;stroke:#1f77b4"
         id="path242"
         inkscape:connector-curvature="0" />
      <path
         class="line"
         d="m 2.6098339,231.56899 2.5256458,6.26676 2.6133418,-1.42369 2.5256455,-1.41588 2.609834,-5.86294 2.609834,7.09565 2.357269,-2.81499 2.606327,2.43475 2.525645,-4.90777 2.609834,3.32617 2.525646,1.93382 2.609834,1.82804 2.609834,-0.90378 2.525646,-6.72331 2.613341,-2.36259 2.525646,-2.97957 2.609834,-2.08372 2.609834,3.12256 2.357269,3.35954 2.606326,6.15971 2.525646,-4.27882 2.609834,-1.67337 2.525646,-5.45227 2.609834,6.30307 2.609834,4.19405 2.525645,-9.09085 2.613342,7.94169 2.525646,3.08 2.609834,-1.04188 2.609834,-0.0264 2.357269,-1.45181 2.606326,3.94503 2.525646,-0.13559 2.609834,0.0392 2.525646,-2.36256 2.609834,1.19832 2.609834,2.16613 2.525645,-2.20875 2.613342,0.33123 2.525649,1.13164 2.60983,-2.30593 2.60983,-0.0656 2.44146,-2.54832 2.60633,-0.80834 2.52564,0.35878 2.60984,-4.31829 2.52564,0.0133 2.60984,-2.04121 2.60983,3.1315 2.52565,-2.16653 2.61334,-4.0422 2.52564,1.1581 2.60984,1.47372 2.60983,-3.94834 2.35727,0.10808 2.60633,-4.23036 2.52564,-1.01546 2.60984,-2.01866 2.52564,-1.26381 2.60984,3.74361 2.60983,-2.52511 2.52565,-6.014 2.61334,-4.1096 2.52564,4.79354 2.60984,-1.7667 2.60983,-0.97767 2.35727,-4.14191 2.60633,-0.63117 2.52564,5.11945 2.60984,-4.22693 2.52564,-2.02946 2.60984,0.35179 2.60983,5.15296 2.52565,-4.59498 2.61334,-3.58347 2.52564,-1.38194 2.60984,-0.29266 2.60983,-4.10242 2.35727,-0.99815 2.60633,1.38186 2.52564,-0.15589 2.60984,-4.35932 2.52564,-0.29031 2.60984,2.01322 2.60983,0.30462 2.52565,-9.3777 2.61334,-3.57219 2.52564,2.49789 2.60984,-1.14204 2.60983,-3.85016 2.44146,1.07284 2.60633,0.51334 2.52564,0.4166 2.60984,-1.55215 2.52564,-4.45811 2.60984,2.56673 2.60983,-1.54602 2.52564,-9.10844 2.61335,-6.96025 2.52564,0.82441 2.60984,-0.57979 2.60983,-6.42974 2.35727,-1.08445 2.60633,-4.56351 2.52564,1.48802 2.60984,-5.64733 2.52564,-7.46972 2.60984,2.31871 2.60983,-4.50249 2.52564,-7.63664 2.61335,-1.68057 2.52564,-3.9984 2.60984,2.59877 2.60983,-9.54368 2.35727,5.47615 2.60633,-1.70821 2.52564,-0.67434 2.60984,-7.28022 2.52564,-6.213338 2.60984,0.07986 2.60983,2.135358 2.52564,-3.882306 2.61335,-12.995838 2.52564,2.358677 2.60984,9.954412 2.60983,-11.208659 2.35727,-6.943559 2.60633,-10.08415 2.52564,7.568751 2.60984,-3.328348 2.52564,-7.102246 2.60983,-1.429631 2.60984,14.59726 2.52564,-18.584868 2.61335,-8.692515 2.52564,4.184876 2.60984,0.816809 2.60983,-3.351742 2.44146,-13.044937 2.60632,-9.861706 2.52565,-12.307038 2.60983,0.228414 2.52565,-0.81558 2.60983,4.928941 2.60984,2.993872 2.52564,-12.544863 2.61334,-6.4116187 2.52565,-2.5032533 2.60983,10.937603 2.60984,5.724638 2.35727,1.965509 2.60632,-8.617808 2.52565,0.03088 2.60983,7.259144 2.52565,-6.741998 2.60983,3.983322 2.60984,7.739191 2.52564,-11.210571 2.61334,-5.156104 L 410,8.1236024"
         data-legend="python"
         style="fill:none;stroke:#ff7f0e"
         id="path244"
         inkscape:connector-curvature="0" />
      <path
         class="line"
         d="m 2.6098339,218.72228 2.5256458,-7.56331 2.6133418,7.38657 2.5256455,-11.02824 2.609834,3.53425 2.609834,-7.16445 2.357269,8.34824 2.606327,-0.0566 2.525645,-11.17037 2.609834,0.8649 2.525646,1.76807 2.609834,-4.76638 2.609834,6.40799 2.525646,-5.41608 2.613341,-3.0384 2.525646,-5.58391 2.609834,4.97484 2.609834,-0.95947 2.357269,3.0957 2.606326,-5.13853 2.525646,-3.69713 2.609834,-0.15482 2.525646,-2.62172 2.609834,1.6532 2.609834,-4.37345 2.525645,1.52613 2.613342,-1.47292 2.525646,-10.43664 2.609834,6.05555 2.609834,0.75537 2.357269,0.54922 2.606326,-8.46269 2.525646,-1.60129 2.609834,-8.27439 2.525646,-5.34217 2.609834,-4.4263 2.609834,4.9908 2.525645,1.87822 2.613342,-0.86192 2.525649,-1.18185 2.60983,-4.00229 2.60983,3.54131 2.44146,0.87574 2.60633,-4.6625 2.52564,-5.12577 2.60984,-0.44309 2.52564,-1.57091 2.60984,-2.15956 2.60983,6.1718 2.52565,2.64352 2.61334,-0.92092 2.52564,-5.88341 2.60984,-1.47073 2.60983,-2.54077 2.35727,1.67609 2.60633,-2.35677 2.52564,-1.59779 2.60984,-3.43904 2.52564,-5.11215 2.60984,-6.57843 2.60983,-14.10062 2.52565,-0.36557 2.61334,4.03793 2.52564,-7.18956 2.60984,-5.03867 2.60983,-1.45017 2.35727,6.27411 2.60633,-1.95034 2.52564,-3.89247 2.60984,-0.38947 2.52564,-1.933279 2.60984,1.222504 2.60983,6.636345 2.52565,-0.51544 2.61334,2.72217 2.52564,-2.74027 2.60984,-4.19891 2.60983,1.20627 2.35727,4.78061 2.60633,-3.54057 2.52564,-16.245686 2.60984,-2.012161 2.52564,-4.050482 2.60984,0.9613 2.60983,3.144513 2.52565,5.75232 2.61334,-4.052694 2.52564,-5.087817 2.60984,-3.833887 2.60983,8.897355 2.44146,-0.33496 2.60633,0.420178 2.52564,-3.994843 2.60984,2.24563 2.52564,-9.634951 2.60984,1.463691 2.60983,9.682404 2.52564,4.627073 2.61335,-0.829073 2.52564,-8.857 2.60984,1.638253 2.60983,0.299912 2.35727,5.88606 2.60633,-2.205789 2.52564,-1.98956 2.60984,-1.926144 2.52564,1.575676 2.60984,-0.293463 2.60983,5.716984 2.52564,0.650878 2.61335,3.460917 2.52564,-3.401162 2.60984,-2.126722 2.60983,9.657723 2.35727,2.927767 2.60633,0.46504 2.52564,4.83233 2.60984,-6.44354 2.52564,-0.37875 2.60984,-2.453306 2.60983,3.170216 2.52564,4.31389 2.61335,0.78586 2.52564,0.11296 2.60984,1.39378 2.60983,0.0261 2.35727,-0.63844 2.60633,3.75781 2.52564,-2.27162 2.60984,-4.03801 2.52564,3.71434 2.60983,-7.43748 2.60984,4.0614 2.52564,7.4489 2.61335,-2.3634 2.52564,-3.09298 2.60984,-2.24873 2.60983,1.28289 2.44146,-7.05606 2.60632,-3.109251 2.52565,-1.602444 2.60983,-0.553458 2.52565,-7.779771 2.60983,-3.192352 2.60984,5.546143 2.52564,4.384266 2.61334,1.921931 2.52565,-8.209482 2.60983,2.033763 2.60984,10.632076 2.35727,5.582359 2.60632,-5.906622 2.52565,-1.027383 2.60983,1.885595 2.52565,-5.079661 2.60983,-2.175341 2.60984,-0.681493 2.52564,6.797678 2.61334,5.210517 L 410,97.55451"
         data-legend="javascript"
         style="fill:none;stroke:#2ca02c"
         id="path246"
         inkscape:connector-curvature="0" />
      <path
         class="line"
         d="m 2.6098339,155.50628 2.5256458,3.27809 2.6133418,6.44297 2.5256455,12.15182 2.609834,-6.4218 2.609834,6.56966 2.357269,-2.8553 2.606327,-2.80715 2.525645,2.59853 2.609834,-7.63061 2.525646,9.03421 2.609834,4.87434 2.609834,-2.82082 2.525646,-0.69729 2.613341,-5.0297 2.525646,1.12977 2.609834,-20.8403 2.609834,5.58832 2.357269,-9.29555 2.606326,13.15602 2.525646,-4.55367 2.609834,6.06623 2.525646,4.63743 2.609834,0.62206 2.609834,-5.66943 2.525645,-2.94614 2.613342,-2.83184 2.525646,-2.19279 2.609834,-0.16996 2.609834,-1.88625 2.357269,-2.00331 2.606326,2.63076 2.525646,-4.88903 2.609834,9.85924 2.525646,-2.20008 2.609834,0.0872 2.609834,-0.94861 2.525645,-4.97456 2.613342,-7.24895 2.525649,-0.43136 2.60983,2.57982 2.60983,-2.06249 2.44146,-7.56133 2.60633,-1.03303 2.52564,4.78356 2.60984,10.07944 2.52564,-2.68203 2.60984,-0.62758 2.60983,-2.13402 2.52565,-3.93899 2.61334,-3.3694 2.52564,0.35124 2.60984,8.34969 2.60983,-4.35631 2.35727,-3.73042 2.60633,-5.35361 2.52564,5.20994 2.60984,6.57766 2.52564,3.64515 2.60984,-4.42782 2.60983,-17.13836 2.52565,-5.96366 2.61334,-8.39813 2.52564,1.51754 2.60984,11.70993 2.60983,-6.35008 2.35727,-5.89438 2.60633,-2.793 2.52564,9.59356 2.60984,7.09662 2.52564,-0.32678 2.60984,3.2118 2.60983,-7.66006 2.52565,-5.29843 2.61334,-6.33597 2.52564,2.89989 2.60984,10.19548 2.60983,0.0469 2.35727,-8.17092 2.60633,-0.66435 2.52564,8.09658 2.60984,8.57117 2.52564,-1.1265 2.60984,2.55526 2.60983,-1.97228 2.52565,-7.44902 2.61334,-0.47018 2.52564,6.71861 2.60984,7.27273 2.60983,-5.1873 2.44146,-7.14902 2.60633,-0.53133 2.52564,16.16123 2.60984,6.29903 2.52564,3.32456 2.60984,1.69258 2.60983,-3.71142 2.52564,-3.35969 2.61335,-3.33226 2.52564,7.05364 2.60984,5.18642 2.60983,-1.35331 2.35727,-4.78312 2.60633,-5.86921 2.52564,2.8725 2.60984,9.93157 2.52564,5.89673 2.60984,2.10401 2.60983,-2.08428 2.52564,-6.63943 2.61335,-2.71273 2.52564,2.70294 2.60984,9.57797 2.60983,-2.86555 2.35727,0.21895 2.60633,-8.13474 2.52564,4.65487 2.60984,7.0183 2.52564,4.79278 2.60984,3.71299 2.60983,-5.46549 2.52564,-5.9475 2.61335,-0.54534 2.52564,-1.3606 2.60984,9.15465 2.60983,-2.32957 2.35727,0.54148 2.60633,3.61135 2.52564,-1.07667 2.60984,4.31406 2.52564,-1.31282 2.60983,9.59599 2.60984,-7.89758 2.52564,-4.72826 2.61335,7.0021 2.52564,2.60152 2.60984,0.44282 2.60983,-2.34212 2.44146,-2.81048 2.60632,3.23374 2.52565,8.01752 2.60983,2.81488 2.52565,-0.0194 2.60983,0.18783 2.60984,-0.6097 2.52564,0.14213 2.61334,0.34981 2.52565,8.00631 2.60983,2.07167 2.60984,0.0861 2.35727,-0.2648 2.60632,0.006 2.52565,-3.7884 2.60983,1.80664 2.52565,5.75891 2.60983,1.9458 2.60984,-0.50596 2.52564,0.53248 2.61334,-6.02988 2.52565,2.26004"
         data-legend="java"
         style="fill:none;stroke:#d62728"
         id="path248"
         inkscape:connector-curvature="0" />
      <path
         class="line"
         d="m 2.6098339,204.09484 2.5256458,-3.215 2.6133418,-4.13989 2.5256455,9.89093 2.609834,-2.20554 2.609834,10.10717 2.357269,-6.21913 2.606327,6.5418 2.525645,1.08487 2.609834,5.15521 2.525646,-1.66916 2.609834,4.33529 2.609834,-2.6653 2.525646,-3.73167 2.613341,1.55237 2.525646,3.12451 2.609834,-1.20272 2.609834,-11.21114 2.357269,7.51213 2.606326,-5.56307 2.525646,5.6404 2.609834,-7.28708 2.525646,11.62583 2.609834,4.88821 2.609834,-5.8713 2.525645,-2.21574 2.613342,-4.40086 2.525646,5.99716 2.609834,2.51323 2.609834,3.8447 2.357269,0.25399 2.606326,-3.76918 2.525646,8.67359 2.609834,0.38849 2.525646,0.42503 2.609834,2.45905 2.609834,-3.15612 2.525645,-7.55757 2.613342,3.18206 2.525649,-1.58144 2.60983,5.16272 2.60983,-3.70526 2.44146,3.6005 2.60633,-3.55376 2.52564,7.22326 2.60984,2.67976 2.52564,-2.95504 2.60984,1.19076 2.60983,-1.08611 2.52565,-4.14318 2.61334,-5.1719 2.52564,0.67682 2.60984,6.47224 2.60983,-2.30258 2.35727,-3.07131 2.60633,-0.34764 2.52564,0.93324 2.60984,3.51283 2.52564,3.35544 2.60984,0.88161 2.60983,-4.99936 2.52565,-6.5602 2.61334,-5.02645 2.52564,6.60244 2.60984,2.95143 2.60983,-0.2446 2.35727,-1.541 2.60633,-0.14246 2.52564,5.87166 2.60984,6.38007 2.52564,-0.90678 2.60984,-1.06271 2.60983,-2.3542 2.52565,-3.99167 2.61334,0.28655 2.52564,0.40127 2.60984,3.88797 2.60983,-2.80588 2.35727,-0.82713 2.60633,2.24217 2.52564,1.66375 2.60984,3.58494 2.52564,0.71463 2.60984,3.38509 2.60983,-1.55777 2.52565,-8.12842 2.61334,-3.47344 2.52564,3.08335 2.60984,7.73659 2.60983,-2.05331 2.44146,-0.0472 2.60633,-0.38818 2.52564,4.70532 2.60984,2.40734 2.52564,0.16237 2.60984,5.91396 2.60983,-4.22772 2.52564,-7.32473 2.61335,-1.15933 2.52564,4.44832 2.60984,0.47885 2.60983,4.35598 2.35727,-2.45254 2.60633,-3.62737 2.52564,8.02965 2.60984,3.78408 2.52564,-2.94313 2.60984,1.68095 2.60983,-1.0404 2.52564,-5.52283 2.61335,1.56962 2.52564,-1.54721 2.60984,1.76461 2.60983,-0.27044 2.35727,-0.29908 2.60633,2.30943 2.52564,1.27287 2.60984,2.47585 2.52564,3.6094 2.60984,-0.41125 2.60983,-2.2268 2.52564,-1.59169 2.61335,-3.91179 2.52564,3.80944 2.60984,1.37378 2.60983,1.13844 2.35727,-3.51225 2.60633,-1.87935 2.52564,2.24078 2.60984,0.80301 2.52564,-2.50596 2.60983,7.51051 2.60984,-6.44417 2.52564,-7.20486 2.61335,-0.32043 2.52564,0.31263 2.60984,5.092 2.60983,1.17145 2.44146,-2.7219 2.60632,-7.58387 2.52565,-0.71104 2.60983,2.98867 2.52565,2.85997 2.60983,-1.91773 2.60984,7.89968 2.52564,-4.89236 2.61334,-2.77665 2.52565,-2.00331 2.60983,9.59755 2.60984,-0.20028 2.35727,3.33098 2.60632,-0.1232 2.52565,-3.67562 2.60983,2.93087 2.52565,2.57881 2.60983,2.47334 2.60984,-6.51342 2.52564,-1.80789 2.61334,-0.95678 L 410,249.1422"
         data-legend="c++"
         style="fill:none;stroke:#9467bd"
         id="path250"
         inkscape:connector-curvature="0" />
      <path
         class="line"
         d="m 2.6098339,90.382349 2.5256458,-33.899768 2.6133418,-0.283226 2.5256455,8.16181 2.609834,-31.431145 2.609834,3.570578 2.357269,-12.170526 2.606327,-1.343479 2.525645,31.331618 2.609834,1.152707 2.525646,2.147395 2.609834,-0.274902 2.609834,7.833808 2.525646,3.286311 2.613341,14.866948 2.525646,5.10101 2.609834,9.271512 2.609834,-0.0788 2.357269,-2.954715 2.606326,0.07435 2.525646,2.41877 2.609834,6.851075 2.525646,0.81 2.609834,0.92339 2.609834,8.28356 2.525645,-1.52611 2.613342,0.92651 2.525646,5.16849 2.609834,4.17119 2.609834,1.33837 2.357269,0.37803 2.606326,3.51777 2.525646,-4.82148 2.609834,2.3422 2.525646,5.44565 2.609834,2.70592 2.609834,4.96195 2.525645,0.36374 2.613342,0.081 2.525649,1.98065 2.60983,-0.22233 2.60983,5.41956 2.44146,0.21774 2.60633,0.76222 2.52564,0.39258 2.60984,-0.88278 2.52564,-0.53304 2.60984,3.99441 2.60983,-1.33088 2.52565,0.66171 2.61334,3.91167 2.52564,3.02417 2.60984,-0.11718 2.60983,-1.01795 2.35727,-0.67418 2.60633,1.76286 2.52564,0.25272 2.60984,0.21635 2.52564,0.91526 2.60984,-1.98557 2.60983,-2.90488 2.52565,1.05716 2.61334,-0.34116 2.52564,0.58533 2.60984,2.10087 2.60983,1.28225 2.35727,4.53627 2.60633,-1.57248 2.52564,-0.25163 2.60984,3.52649 2.52564,-0.69377 2.60984,1.43699 2.60983,3.98737 2.52565,2.735 2.61334,2.46695 2.52564,-0.28839 2.60984,0.93453 2.60983,1.25154 2.35727,0.27858 2.60633,1.55786 2.52564,-5.30416 2.60984,-0.16428 2.52564,-0.4493 2.60984,-1.12171 2.60983,0.42253 2.52565,7.13482 2.61334,-1.50562 2.52564,-1.66082 2.60984,3.78593 2.60983,1.10804 2.44146,0.15645 2.60633,-3.94306 2.52564,-2.74009 2.60984,0.61212 2.52564,5.365 2.60984,-3.81228 2.60983,9.3178 2.52564,-1.07264 2.61335,-2.0925 2.52564,1.15408 2.60984,-0.55288 2.60983,0.9275 2.35727,2.1141 2.60633,4.20802 2.52564,-3.81182 2.60984,1.47464 2.52564,1.89947 2.60984,1.05983 2.60983,1.49937 2.52564,1.32525 2.61335,3.89124 2.52564,-2.26149 2.60984,1.24497 2.60983,4.34823 2.35727,-1.02892 2.60633,-0.49465 2.52564,-4.19038 2.60984,4.08385 2.52564,-3.66061 2.60984,-1.91896 2.60983,3.50498 2.52564,-0.31253 2.61335,2.6609 2.52564,-0.91249 2.60984,-2.65998 2.60983,2.8059 2.35727,2.54105 2.60633,-6.88693 2.52564,-0.30661 2.60984,6.63004 2.52564,0.13914 2.60983,-0.66768 2.60984,-1.93263 2.52564,4.0897 2.61335,1.87927 2.52564,-0.50535 2.60984,2.12137 2.60983,0.14598 2.44146,5.90168 2.60632,5.20215 2.52565,1.50427 2.60983,0.20085 2.52565,-1.91238 2.60983,-1.14934 2.60984,3.62004 2.52564,3.52356 2.61334,-1.01529 2.52565,2.56413 2.60983,0.40629 2.60984,2.27278 2.35727,1.68513 2.60632,-0.74976 2.52565,1.07578 2.60983,-1.15793 2.52565,2.67436 2.60983,0.16087 2.60984,-1.76721 2.52564,-3.13616 2.61334,-4.26311 2.52565,2.60924"
         data-legend="c#"
         style="fill:none;stroke:#8c564b"
         id="path252"
         inkscape:connector-curvature="0" />
    </g>
  </g>
  <g
     transform="translate(-2.8828125,130)"
     id="g260">
    <text
       transform="rotate(-90)"
       x="-50"
       y="0"
       dy="1em"
       class="axis-label y-axis-label"
       style="font-weight:bold;text-anchor:middle"
       id="text258">% of Stack Overflow questions that month</text>
  </g>
  <g
     class="legend"
     transform="translate(507.11719,10)"
     style="font-size:12px"
     id="g292">
    <text
       class="legend-title"
       style="font-weight:bold"
       id="text262">Tag</text>
    <g
       class="legend-items"
       transform="translate(0,20)"
       id="g288">
      <text
         y="0em"
         x="1em"
         id="text264">python</text>
      <text
         y="1em"
         x="1em"
         id="text266">c#</text>
      <text
         y="2em"
         x="1em"
         id="text268">javascript</text>
      <text
         y="3em"
         x="1em"
         id="text270">java</text>
      <text
         y="4em"
         x="1em"
         id="text272">c++</text>
      <text
         y="5em"
         x="1em"
         id="text274">r</text>
      <circle
         cy="-0.25em"
         cx="0"
         r="0.40000001em"
         style="fill:#ff7f0e"
         id="circle276" />
      <circle
         cy="0.75em"
         cx="0"
         r="0.40000001em"
         style="fill:#8c564b"
         id="circle278" />
      <circle
         cy="1.75em"
         cx="0"
         r="0.40000001em"
         style="fill:#2ca02c"
         id="circle280" />
      <circle
         cy="2.75em"
         cx="0"
         r="0.40000001em"
         style="fill:#d62728"
         id="circle282" />
      <circle
         cy="3.75em"
         cx="0"
         r="0.40000001em"
         style="fill:#9467bd"
         id="circle284" />
      <circle
         cy="4.75em"
         cx="0"
         r="0.40000001em"
         style="fill:#1f77b4"
         id="circle286" />
    </g>
    <rect
       class="legend-box"
       id="rect290"
       width="0"
       height="0"
       x="0"
       y="0" />
  </g>
</svg>
